<svg width="240" height="240" viewBox="0 0 240 240" fill="none" xmlns="http://www.w3.org/2000/svg">
  <rect width="240" height="240" rx="56" fill="#FFF4F5"/>
  <path d="M44 138C44 96.0264 78.0264 62 120 62C161.974 62 196 96.0264 196 138H44Z" fill="#F45C7A"/>
  <path d="M44 138H196C194.612 150.907 189.257 163.069 180.628 172.797C166.788 188.398 146.597 198 124.164 198C101.73 198 81.5401 188.398 67.6997 172.797C59.0709 163.069 53.7165 150.907 52.3281 138H44Z" fill="#FF8FA2"/>
  <path d="M52.3281 138H196C194.889 148.329 191.266 158.188 185.465 166.842C169.989 189.932 143.622 205 113.734 205C87.577 205 64.1181 193.472 48.4658 175.188C41.4821 167.03 36.8399 157.007 35.3105 146.061C34.7586 142.11 34.6661 138.176 35.0068 134.302L52.3281 138Z" fill="#1F6C49"/>
  <path d="M49.623 150.412C53.8394 158.649 59.8809 166.18 67.4453 172.057C81.4378 182.93 99.0068 189.348 118.063 189.348C143.032 189.348 165.446 178.337 180.628 160.911C183.843 157.219 186.67 153.179 189.057 148.86L49.623 150.412Z" fill="#2B8A57"/>
  <ellipse cx="88.5347" cy="111.292" rx="5.74616" ry="9.8775" transform="rotate(-18 88.5347 111.292)" fill="#223128"/>
  <ellipse cx="118.389" cy="101.18" rx="5.74616" ry="9.8775" transform="rotate(-8 118.389 101.18)" fill="#223128"/>
  <ellipse cx="146.89" cy="112.2" rx="5.74616" ry="9.8775" transform="rotate(14 146.89 112.2)" fill="#223128"/>
  <ellipse cx="72.7569" cy="140.91" rx="5.04016" ry="8.66416" transform="rotate(-24 72.7569 140.91)" fill="#223128"/>
  <ellipse cx="103.859" cy="136.192" rx="5.04016" ry="8.66416" transform="rotate(-10 103.859 136.192)" fill="#223128"/>
  <ellipse cx="134.168" cy="137.603" rx="5.04016" ry="8.66416" transform="rotate(11 134.168 137.603)" fill="#223128"/>
  <ellipse cx="165.516" cy="141.034" rx="5.04016" ry="8.66416" transform="rotate(24 165.516 141.034)" fill="#223128"/>
</svg>
